<?xml version="1.0" encoding="UTF-8" standalone="no"?>
<svg
   xmlns:dc="http://purl.org/dc/elements/1.1/"
   xmlns:cc="http://creativecommons.org/ns#"
   xmlns:rdf="http://www.w3.org/1999/02/22-rdf-syntax-ns#"
   xmlns:svg="http://www.w3.org/2000/svg"
   xmlns="http://www.w3.org/2000/svg"
   xmlns:sodipodi="http://sodipodi.sourceforge.net/DTD/sodipodi-0.dtd"
   xmlns:inkscape="http://www.inkscape.org/namespaces/inkscape"
   version="1.1"
   id="svg2"
   xml:space="preserve"
   width="1575.12"
   height="1055.1187"
   viewBox="0 0 1575.12 1055.1187"
   sodipodi:docname="AR 2.ai"><metadata
     id="metadata8"><rdf:RDF><cc:Work
         rdf:about=""><dc:format>image/svg+xml</dc:format><dc:type
           rdf:resource="http://purl.org/dc/dcmitype/StillImage" /></cc:Work></rdf:RDF></metadata><defs
     id="defs6"><clipPath
       clipPathUnits="userSpaceOnUse"
       id="clipPath18"><path
         d="M 0,791.339 H 1181.339 V 0 H 0 Z"
         id="path16" /></clipPath><clipPath
       clipPathUnits="userSpaceOnUse"
       id="clipPath26"><path
         d="M 536.572,573.569 H 987.484 V 52.5771 H 536.572 Z"
         id="path24" /></clipPath><linearGradient
       x1="0"
       y1="0"
       x2="1"
       y2="0"
       gradientUnits="userSpaceOnUse"
       gradientTransform="matrix(450.91162,0,0,-450.91162,536.57227,313.07324)"
       spreadMethod="pad"
       id="linearGradient38"><stop
         style="stop-opacity:1;stop-color:#f3f4f3"
         offset="0"
         id="stop32" /><stop
         style="stop-opacity:1;stop-color:#f3f4f3"
         offset="0.50695927"
         id="stop34" /><stop
         style="stop-opacity:1;stop-color:#aeb9ca"
         offset="1"
         id="stop36" /></linearGradient><clipPath
       clipPathUnits="userSpaceOnUse"
       id="clipPath60"><path
         d="m 830.704,518.237 h 98.559 v -85.599 h -98.559 z"
         id="path58" /></clipPath><linearGradient
       x1="0"
       y1="0"
       x2="1"
       y2="0"
       gradientUnits="userSpaceOnUse"
       gradientTransform="matrix(98.55957,0,0,-98.55957,830.70361,475.4375)"
       spreadMethod="pad"
       id="linearGradient72"><stop
         style="stop-opacity:1;stop-color:#f3f4f3"
         offset="0"
         id="stop66" /><stop
         style="stop-opacity:1;stop-color:#f3f4f3"
         offset="0.50695927"
         id="stop68" /><stop
         style="stop-opacity:1;stop-color:#aeb9ca"
         offset="1"
         id="stop70" /></linearGradient><clipPath
       clipPathUnits="userSpaceOnUse"
       id="clipPath94"><path
         d="M 858.982,237.429 H 967.364 V 135.719 H 858.982 Z"
         id="path92" /></clipPath><linearGradient
       x1="0"
       y1="0"
       x2="1"
       y2="0"
       gradientUnits="userSpaceOnUse"
       gradientTransform="matrix(108.38184,0,0,-108.38184,858.98193,186.57324)"
       spreadMethod="pad"
       id="linearGradient106"><stop
         style="stop-opacity:1;stop-color:#f3f4f3"
         offset="0"
         id="stop100" /><stop
         style="stop-opacity:1;stop-color:#f3f4f3"
         offset="0.50695927"
         id="stop102" /><stop
         style="stop-opacity:1;stop-color:#aeb9ca"
         offset="1"
         id="stop104" /></linearGradient><clipPath
       clipPathUnits="userSpaceOnUse"
       id="clipPath134"><path
         d="M 0,791.339 H 1181.339 V 0 H 0 Z"
         id="path132" /></clipPath><clipPath
       clipPathUnits="userSpaceOnUse"
       id="clipPath142"><path
         d="M 513.272,464.267 H 858.493 V 330.788 H 513.272 Z"
         id="path140" /></clipPath><linearGradient
       x1="0"
       y1="0"
       x2="1"
       y2="0"
       gradientUnits="userSpaceOnUse"
       gradientTransform="matrix(345.22021,0,0,-345.22021,513.27246,397.52734)"
       spreadMethod="pad"
       id="linearGradient154"><stop
         style="stop-opacity:1;stop-color:#f3f4f3"
         offset="0"
         id="stop148" /><stop
         style="stop-opacity:1;stop-color:#f3f4f3"
         offset="0.50695927"
         id="stop150" /><stop
         style="stop-opacity:1;stop-color:#aeb9ca"
         offset="1"
         id="stop152" /></linearGradient><clipPath
       clipPathUnits="userSpaceOnUse"
       id="clipPath176"><path
         d="M 533.106,454.082 H 835.443 V 337.757 H 533.106 Z"
         id="path174" /></clipPath><clipPath
       clipPathUnits="userSpaceOnUse"
       id="clipPath192"><path
         d="M 513.272,331.86 H 710.005 V 321.14 H 513.272 Z"
         id="path190" /></clipPath><clipPath
       clipPathUnits="userSpaceOnUse"
       id="clipPath208"><path
         d="M 705.181,462.708 H 864.794 V 321.14 H 705.181 Z"
         id="path206" /></clipPath><clipPath
       clipPathUnits="userSpaceOnUse"
       id="clipPath224"><path
         d="M 559.374,448.649 H 809.712 V 351.23 H 559.374 Z"
         id="path222" /></clipPath><clipPath
       clipPathUnits="userSpaceOnUse"
       id="clipPath280"><path
         d="m 620.622,421.382 h 59.364 v -49.585 h -59.364 z"
         id="path278" /></clipPath><clipPath
       clipPathUnits="userSpaceOnUse"
       id="clipPath328"><path
         d="M 517.382,537.17 H 680.254 V 374.209 H 517.382 Z"
         id="path326" /></clipPath><linearGradient
       x1="0"
       y1="0"
       x2="1"
       y2="0"
       gradientUnits="userSpaceOnUse"
       gradientTransform="matrix(162.87207,0,0,-162.87207,517.38232,455.68945)"
       spreadMethod="pad"
       id="linearGradient340"><stop
         style="stop-opacity:1;stop-color:#f3f4f3"
         offset="0"
         id="stop334" /><stop
         style="stop-opacity:1;stop-color:#f3f4f3"
         offset="0.50695927"
         id="stop336" /><stop
         style="stop-opacity:1;stop-color:#aeb9ca"
         offset="1"
         id="stop338" /></linearGradient></defs><sodipodi:namedview
     pagecolor="#ffffff"
     bordercolor="#666666"
     borderopacity="1"
     objecttolerance="10"
     gridtolerance="10"
     guidetolerance="10"
     inkscape:pageopacity="0"
     inkscape:pageshadow="2"
     inkscape:window-width="640"
     inkscape:window-height="480"
     id="namedview4" /><g
     id="g10"
     inkscape:groupmode="layer"
     inkscape:label="AR 2"
     transform="matrix(1.3333333,0,0,-1.3333333,0,1055.1187)"><g
       id="g12"><g
         id="g14"
         clip-path="url(#clipPath18)"><g
           id="g20"><g
             id="g22" /><g
             id="g52"><g
               clip-path="url(#clipPath26)"
               opacity="0.800003"
               id="g50"><g
                 id="g48"><g
                   id="g46"><g
                     id="g44"><g
                       id="g42"><path
                         d="m 537.752,53.29 c 0,0 -17.154,55.75 79.336,115.788 96.491,60.038 52.177,195.839 13.58,247.3 -38.595,51.462 -27.159,115.789 34.308,142.949 61.468,27.16 132.228,20.012 140.805,-61.468 8.576,-81.481 -14.296,-90.057 85.768,-105.067 100.066,-15.01 115.788,-74.333 75.048,-112.214 C 925.857,242.697 793.631,237.694 845.807,153.354 897.982,69.015 860.101,52.577 860.101,52.577 Z"
                         style="fill:url(#linearGradient38);stroke:none"
                         id="path40" /></g></g></g></g></g></g></g><g
           id="g54"><g
             id="g56" /><g
             id="g86"><g
               clip-path="url(#clipPath60)"
               opacity="0.800003"
               id="g84"><g
                 id="g82"><g
                   id="g80"><g
                     id="g78"><g
                       id="g76"><path
                         d="m 928.716,474.273 c 8.577,-70.759 -86.484,-38.596 -97.205,2.859 -10.72,41.455 88.629,67.901 97.205,-2.859"
                         style="fill:url(#linearGradient72);stroke:none"
                         id="path74" /></g></g></g></g></g></g></g><g
           id="g88"><g
             id="g90" /><g
             id="g120"><g
               clip-path="url(#clipPath94)"
               opacity="0.800003"
               id="g118"><g
                 id="g116"><g
                   id="g114"><g
                     id="g112"><g
                       id="g110"><path
                         d="m 930.146,236.98 c 0,0 47.888,8.578 35.022,-49.317 -12.865,-57.893 -67.9,-63.612 -74.333,-35.737 -6.432,27.875 -20.728,-2.859 -29.304,20.727 -8.577,23.587 2.143,52.893 68.615,64.327"
                         style="fill:url(#linearGradient106);stroke:none"
                         id="path108" /></g></g></g></g></g></g></g></g></g><path
       d="M 869.75,291.12 H 393.195 v 9.649 H 869.75 Z"
       style="fill:#aeb9ca;fill-opacity:1;fill-rule:nonzero;stroke:none"
       id="path122" /><g
       id="g124"
       transform="translate(198.9648,51.1465)"><path
         d="M 0,0 H 690.442"
         style="fill:none;stroke:#37475d;stroke-width:6;stroke-linecap:round;stroke-linejoin:miter;stroke-miterlimit:10;stroke-dasharray:none;stroke-opacity:1"
         id="path126" /></g><g
       id="g128"><g
         id="g130"
         clip-path="url(#clipPath134)"><g
           id="g136"><g
             id="g138" /><g
             id="g168"><g
               clip-path="url(#clipPath142)"
               opacity="0.100006"
               id="g166"><g
                 id="g164"><g
                   id="g162"><g
                     id="g160"><g
                       id="g158"><path
                         d="M 654.255,464.267 858.493,462.659 705.181,330.788 513.272,331.86 Z"
                         style="fill:url(#linearGradient154);stroke:none"
                         id="path156" /></g></g></g></g></g></g></g><g
           id="g170"><g
             id="g172" /><g
             id="g184"><g
               clip-path="url(#clipPath176)"
               opacity="0.199997"
               id="g182"><g
                 transform="translate(661.2241,454.0815)"
                 id="g180"><path
                   d="M 0,0 H 174.219 L 38.061,-116.325 h -166.179 z"
                   style="fill:#d1e6f6;fill-opacity:1;fill-rule:nonzero;stroke:none"
                   id="path178" /></g></g></g></g><g
           id="g186"><g
             id="g188" /><g
             id="g200"><g
               clip-path="url(#clipPath192)"
               opacity="0.800003"
               id="g198"><g
                 transform="translate(513.2725,331.8604)"
                 id="g196"><path
                   d="m 0,0 2.144,-10.721 h 194.589 l -4.824,9.649 z"
                   style="fill:#2f3191;fill-opacity:1;fill-rule:nonzero;stroke:none"
                   id="path194" /></g></g></g></g><g
           id="g202"><g
             id="g204" /><g
             id="g216"><g
               clip-path="url(#clipPath208)"
               opacity="0.800003"
               id="g214"><g
                 transform="translate(705.1812,330.7881)"
                 id="g212"><path
                   d="m 0,0 4.824,-9.648 154.789,134.945 -5.751,6.623 z"
                   style="fill:#242265;fill-opacity:1;fill-rule:nonzero;stroke:none"
                   id="path210" /></g></g></g></g><g
           id="g218"><g
             id="g220" /><g
             id="g272"><g
               clip-path="url(#clipPath224)"
               opacity="0.800003"
               id="g270"><g
                 transform="translate(667.1206,447.6489)"
                 id="g228"><path
                   d="M 0,0 H 142.592"
                   style="fill:none;stroke:#70cbda;stroke-width:2;stroke-linecap:butt;stroke-linejoin:miter;stroke-miterlimit:10;stroke-dasharray:none;stroke-opacity:1"
                   id="path226" /></g><g
                 transform="translate(559.3735,352.2305)"
                 id="g232"><path
                   d="M 0,0 H 142.591"
                   style="fill:none;stroke:#66bb46;stroke-width:2;stroke-linecap:butt;stroke-linejoin:miter;stroke-miterlimit:10;stroke-dasharray:none;stroke-opacity:1"
                   id="path230" /></g><g
                 transform="translate(658.0073,439.0718)"
                 id="g236"><path
                   d="M 0,0 H 42.349"
                   style="fill:none;stroke:#70cbda;stroke-width:2;stroke-linecap:butt;stroke-linejoin:miter;stroke-miterlimit:10;stroke-dasharray:none;stroke-opacity:1"
                   id="path234" /></g><g
                 transform="translate(711.6138,438.5361)"
                 id="g240"><path
                   d="M 0,0 H 85.232"
                   style="fill:none;stroke:#70cbda;stroke-width:2;stroke-linecap:butt;stroke-linejoin:miter;stroke-miterlimit:10;stroke-dasharray:none;stroke-opacity:1"
                   id="path238" /></g><g
                 transform="translate(699.8198,427.2788)"
                 id="g244"><path
                   d="M 0,0 H 78.801"
                   style="fill:none;stroke:#66bb46;stroke-width:2;stroke-linecap:butt;stroke-linejoin:miter;stroke-miterlimit:10;stroke-dasharray:none;stroke-opacity:1"
                   id="path242" /></g><g
                 transform="translate(718.5825,412.8052)"
                 id="g248"><path
                   d="M 0,0 H 49.317"
                   style="fill:none;stroke:#66bb46;stroke-width:2;stroke-linecap:butt;stroke-linejoin:miter;stroke-miterlimit:10;stroke-dasharray:none;stroke-opacity:1"
                   id="path246" /></g><g
                 transform="translate(708.9331,400.4756)"
                 id="g252"><path
                   d="M 0,0 H 44.493"
                   style="fill:none;stroke:#4273b8;stroke-width:2;stroke-linecap:butt;stroke-linejoin:miter;stroke-miterlimit:10;stroke-dasharray:none;stroke-opacity:1"
                   id="path250" /></g><g
                 transform="translate(656.936,362.9521)"
                 id="g256"><path
                   d="M 0,0 H 54.142"
                   style="fill:none;stroke:#66bb46;stroke-width:2;stroke-linecap:butt;stroke-linejoin:miter;stroke-miterlimit:10;stroke-dasharray:none;stroke-opacity:1"
                   id="path254" /></g><g
                 transform="translate(572.7749,362.9521)"
                 id="g260"><path
                   d="M 0,0 H 71.295"
                   style="fill:none;stroke:#66bb46;stroke-width:2;stroke-linecap:butt;stroke-linejoin:miter;stroke-miterlimit:10;stroke-dasharray:none;stroke-opacity:1"
                   id="path258" /></g><g
                 transform="translate(703.0366,388.6826)"
                 id="g264"><path
                   d="M 0,0 H 35.38"
                   style="fill:none;stroke:#4273b8;stroke-width:2;stroke-linecap:butt;stroke-linejoin:miter;stroke-miterlimit:10;stroke-dasharray:none;stroke-opacity:1"
                   id="path262" /></g><g
                 transform="translate(691.7798,374.209)"
                 id="g268"><path
                   d="M 0,0 H 35.379"
                   style="fill:none;stroke:#4273b8;stroke-width:2;stroke-linecap:butt;stroke-linejoin:miter;stroke-miterlimit:10;stroke-dasharray:none;stroke-opacity:1"
                   id="path266" /></g></g></g></g><g
           id="g274"><g
             id="g276" /><g
             id="g320"><g
               clip-path="url(#clipPath280)"
               opacity="0.5"
               id="g318"><g
                 transform="translate(671.6772,421.3818)"
                 id="g284"><path
                   d="m 0,0 c 0,0 -7.505,-11.257 -14.741,-10.453 l 5.092,-4.557 c 0,0 13.67,9.918 15.545,14.474 z"
                   style="fill:#e51e26;fill-opacity:1;fill-rule:nonzero;stroke:none"
                   id="path282" /></g><g
                 transform="translate(658.812,419.2378)"
                 id="g288"><path
                   d="m 0,0 c 0,0 -2.681,-7.505 1.876,-9.113 4.557,-1.608 17.422,1.34 17.422,1.34 l 1.876,-4.02 c 0,0 -11.526,-1.073 -10.185,-7.505 1.34,-6.433 -11.525,-28.143 -37.256,-28.143 -25.731,0 -3.753,26.803 9.381,35.916 0,0 5.628,5.629 9.113,5.629 3.484,0 3.752,7.772 3.752,7.772 z"
                   style="fill:#ed3224;fill-opacity:1;fill-rule:nonzero;stroke:none"
                   id="path286" /></g><g
                 transform="translate(646.8843,411.063)"
                 id="g292"><path
                   d="M 0,0 C 0,0 -9.247,-6.031 21.041,-11.66"
                   style="fill:none;stroke:#f1695c;stroke-width:1;stroke-linecap:butt;stroke-linejoin:miter;stroke-miterlimit:10;stroke-dasharray:none;stroke-opacity:1"
                   id="path290" /></g><g
                 transform="translate(654.5229,402.6201)"
                 id="g296"><path
                   d="m 0,0 -4.02,-9.649 3.485,-6.969"
                   style="fill:none;stroke:#f1695c;stroke-width:1;stroke-linecap:butt;stroke-linejoin:miter;stroke-miterlimit:10;stroke-dasharray:none;stroke-opacity:1"
                   id="path294" /></g><g
                 transform="translate(643.2661,397.5273)"
                 id="g300"><path
                   d="M 0,0 8.309,-1.608"
                   style="fill:none;stroke:#f1695c;stroke-width:1;stroke-linecap:butt;stroke-linejoin:miter;stroke-miterlimit:10;stroke-dasharray:none;stroke-opacity:1"
                   id="path298" /></g><g
                 transform="translate(626.9165,392.7031)"
                 id="g304"><path
                   d="M 0,0 5.093,-10.722 4.824,-15.01"
                   style="fill:none;stroke:#f1695c;stroke-width:1;stroke-linecap:butt;stroke-linejoin:miter;stroke-miterlimit:10;stroke-dasharray:none;stroke-opacity:1"
                   id="path302" /></g><g
                 transform="translate(629.061,388.1465)"
                 id="g308"><path
                   d="M 0,0 7.505,2.681 12.865,0"
                   style="fill:none;stroke:#f1695c;stroke-width:1;stroke-linecap:butt;stroke-linejoin:miter;stroke-miterlimit:10;stroke-dasharray:none;stroke-opacity:1"
                   id="path306" /></g><g
                 transform="translate(643.8022,383.5898)"
                 id="g312"><path
                   d="M 0,0 -1.608,-10.721"
                   style="fill:none;stroke:#f1695c;stroke-width:1;stroke-linecap:butt;stroke-linejoin:miter;stroke-miterlimit:10;stroke-dasharray:none;stroke-opacity:1"
                   id="path310" /></g><g
                 transform="translate(643.2661,379.5693)"
                 id="g316"><path
                   d="M 0,0 6.165,2.948"
                   style="fill:none;stroke:#f1695c;stroke-width:1;stroke-linecap:butt;stroke-linejoin:miter;stroke-miterlimit:10;stroke-dasharray:none;stroke-opacity:1"
                   id="path314" /></g></g></g></g><g
           id="g322"><g
             id="g324" /><g
             id="g354"><g
               clip-path="url(#clipPath328)"
               opacity="0.399994"
               id="g352"><g
                 id="g350"><g
                   id="g348"><g
                     id="g346"><g
                       id="g344"><path
                         d="m 517.382,431.389 107.926,-57.18 54.946,46.637 -96.4,116.324 z"
                         style="fill:url(#linearGradient340);stroke:none"
                         id="path342" /></g></g></g></g></g></g></g><g
           id="g356"
           transform="translate(573.4897,538.5991)"><path
             d="m 0,0 c 0,0 -12.15,-34.307 -17.154,-38.239 l 5.361,-5.718 10.006,1.787 c 0,0 0.715,24.659 13.223,35.379 0,0 0.179,12.508 -11.436,6.791"
             style="fill:#e51e26;fill-opacity:1;fill-rule:nonzero;stroke:none"
             id="path358" /></g><g
           id="g360"
           transform="translate(573.4897,538.5991)"><path
             d="m 0,0 c 0,0 -9.321,-28.045 -17.154,-38.239 l 5.361,-5.718 c 0,0 17.473,43.858 18.64,45.024 C 8.013,2.234 1.487,1.266 0,0"
             style="fill:#d31e2b;fill-opacity:1;fill-rule:nonzero;stroke:none"
             id="path362" /></g><g
           id="g364"
           transform="translate(552.0469,523.9473)"><path
             d="M 0,0 C 0,0 4.646,2.501 8.22,-1.072 11.793,-4.646 0,-15.725 7.505,-22.514 c 7.505,-6.79 14.294,0.358 20.37,9.292 0,0 5.719,-0.358 6.076,-5.004 l -6.79,-9.649 c 0,0 9.649,-75.047 -61.826,-64.684 0,0 -18.584,33.236 19.656,68.258 0,0 1.787,12.508 12.508,12.508 z"
             style="fill:#ed3224;fill-opacity:1;fill-rule:nonzero;stroke:none"
             id="path366" /></g><g
           id="g368"
           transform="translate(552.0469,523.9473)"><path
             d="m 0,0 -2.501,-11.793 c 0,0 -9.807,0.969 -12.508,-12.508 0,0 -36.943,-29.709 -19.656,-68.258 0,0 -0.712,48.114 23.788,61.281 0,0 4.166,15.332 11,14.498 l 4,17.5 C 4.123,0.72 1.877,1.28 0,0"
             style="fill:#e51e26;fill-opacity:1;fill-rule:nonzero;stroke:none"
             id="path370" /></g><g
           id="g372"
           transform="translate(578.5444,495.6689)"><path
             d="M 0,0 C 0,0 -3.625,-2.456 -3.268,-10.317"
             style="fill:none;stroke:#f1695c;stroke-width:1;stroke-linecap:butt;stroke-linejoin:miter;stroke-miterlimit:10;stroke-dasharray:none;stroke-opacity:1"
             id="path374" /></g><g
           id="g376"
           transform="translate(578.7944,478.7939)"><path
             d="M 0,0 C 0,0 -4.232,-1.305 -7.807,0.125"
             style="fill:none;stroke:#f1695c;stroke-width:1;stroke-linecap:butt;stroke-linejoin:miter;stroke-miterlimit:10;stroke-dasharray:none;stroke-opacity:1"
             id="path378" /></g><g
           id="g380"
           transform="translate(537.5029,498.5039)"><path
             d="M 0,0 C 0,0 3.465,-10.651 24.193,-17.441"
             style="fill:none;stroke:#f1695c;stroke-width:1;stroke-linecap:butt;stroke-linejoin:miter;stroke-miterlimit:10;stroke-dasharray:none;stroke-opacity:1"
             id="path382" /></g><g
           id="g384"
           transform="translate(545.2573,489.2837)"><path
             d="M 0,0 0.714,-21.442 -3.932,-27.16"
             style="fill:none;stroke:#f1695c;stroke-width:1;stroke-linecap:butt;stroke-linejoin:miter;stroke-miterlimit:10;stroke-dasharray:none;stroke-opacity:1"
             id="path386" /></g><g
           id="g388"
           transform="translate(544.5425,465.6973)"><path
             d="m 0,0 7.147,-6.433 -5.36,-8.934"
             style="fill:none;stroke:#f1695c;stroke-width:1;stroke-linecap:butt;stroke-linejoin:miter;stroke-miterlimit:10;stroke-dasharray:none;stroke-opacity:1"
             id="path390" /></g><g
           id="g392"
           transform="translate(564.9126,475.3462)"><path
             d="M 0,0 2.859,-10.364 -4.289,-21.085"
             style="fill:none;stroke:#f1695c;stroke-width:1;stroke-linecap:butt;stroke-linejoin:miter;stroke-miterlimit:10;stroke-dasharray:none;stroke-opacity:1"
             id="path394" /></g><g
           id="g396"
           transform="translate(559.5518,465.6973)"><path
             d="M 0,0 2.502,-25.016"
             style="fill:none;stroke:#f1695c;stroke-width:1;stroke-linecap:butt;stroke-linejoin:miter;stroke-miterlimit:10;stroke-dasharray:none;stroke-opacity:1"
             id="path398" /></g><g
           id="g400"
           transform="translate(579.9219,510.7251)"><path
             d="m 0,0 c 0,0 -6.252,-11.306 -14.627,-12.056 0,0 8,-0.875 13,3.25 5,4.125 5.5,7.5 5.5,7.5 0,0 -2.871,1.612 -3.873,1.306"
             style="fill:#e51e26;fill-opacity:1;fill-rule:nonzero;stroke:none"
             id="path402" /></g><g
           id="g404"
           transform="translate(302.2446,115.4727)"><path
             d="M 0,0 V -62.897 H -30.734 V 3.931 Z"
             style="fill:#242265;fill-opacity:1;fill-rule:nonzero;stroke:none"
             id="path406" /></g><g
           id="g408"
           transform="translate(221.1211,98.3184)"><path
             d="M 0,0 V -46.459 H 55.393 V 10.722 Z"
             style="fill:#2f3191;fill-opacity:1;fill-rule:nonzero;stroke:none"
             id="path410" /></g><g
           id="g412"
           transform="translate(265.793,633.6592)"><path
             d="m 0,0 1.429,45.386 39.311,0.357 2.145,-12.508 c 0,0 -6.791,-20.727 -6.791,-21.799 0,-1.073 -14.652,-21.8 -14.652,-21.8 z"
             style="fill:#1e2556;fill-opacity:1;fill-rule:nonzero;stroke:none"
             id="path414" /></g><g
           id="g416"
           transform="translate(357.2798,677.6162)"><path
             d="m 0,0 c 0,0 -13.937,-71.117 -28.232,-78.622 0,0 -17.511,0.001 -28.947,8.22 0,0 -11.079,-18.941 -10.364,-37.167 l -24.659,8.935 c 0,0 3.575,22.871 0.715,54.677 0,0 17.869,2.859 23.587,12.865 0,0 -13.58,16.081 -0.358,20.727 0,0 5.003,0.715 7.148,-5.36 2.144,-6.075 -2.502,11.079 10.363,17.511 z"
             style="fill:#5a7dbd;fill-opacity:1;fill-rule:nonzero;stroke:none"
             id="path418" /></g><g
           id="g420"
           transform="translate(357.2798,677.6162)"><path
             d="m 0,0 c 0,0 -5.36,53.961 -7.862,57.535 -2.502,3.573 -70.759,7.147 -84.697,-14.295 0,0 -0.176,-19.812 2.144,-49.675 0,0 60.396,8.581 90.415,6.435"
             style="fill:#ecf0f8;fill-opacity:1;fill-rule:nonzero;stroke:none"
             id="path422" /></g><g
           id="g424"
           transform="translate(474.3784,324.623)"><path
             d="m 0,0 -8.279,-13.669 c 0,0 0,-9.648 13.937,-9.648 13.938,0 36.452,-1.073 25.195,4.824 -11.257,5.896 -14.474,5.896 -14.474,5.896 0,0 22.515,2.145 28.948,-10.184 0,0 5.361,-2.145 5.361,3.216 0,5.36 -15.752,16.289 -36.453,15.545 C -0.455,-4.548 0,0 0,0"
             style="fill:#5a7dbd;fill-opacity:1;fill-rule:nonzero;stroke:none"
             id="path426" /></g><g
           id="g428"
           transform="translate(421.9644,557.1831)"><path
             d="m 0,0 c 0,0 -30.02,24.301 -36.452,-12.865 -6.433,-37.167 25.731,-32.163 45.029,-67.186 19.298,-35.023 22.156,-36.452 9.291,-75.048 -12.865,-38.596 35.023,-40.741 52.891,-31.449 17.869,9.292 52.891,1.428 57.894,-8.577"
             style="fill:none;stroke:#1e2556;stroke-width:1;stroke-linecap:butt;stroke-linejoin:miter;stroke-miterlimit:10;stroke-dasharray:none;stroke-opacity:1"
             id="path430" /></g><g
           id="g432"
           transform="translate(417.7144,556.1792)"><path
             d="m 0,0 5.894,3.711 54.792,-70.073 -11.132,3.711 c 0,0 -0.874,6.549 -4.366,9.823 z"
             style="fill:#7e90aa;fill-opacity:1;fill-rule:nonzero;stroke:none"
             id="path434" /></g><g
           id="g436"
           transform="translate(299.3857,501.7905)"><path
             d="m 0,0 c 0,0 16.618,-27.875 26.267,-41.276 9.649,-13.402 38.596,-54.678 38.596,-54.678 0,0 5.896,-10.185 11.793,-13.402 5.897,-3.216 92.738,-58.43 92.738,-58.43 0,0 -1.072,-16.618 -13.937,-16.618 l -93.274,68.615 -61.647,73.441 z"
             style="fill:#7e90aa;fill-opacity:1;fill-rule:nonzero;stroke:none"
             id="path438" /></g><g
           id="g440"
           transform="translate(249.354,576.4805)"><path
             d="m 0,0 -37.882,-54.32 c 0,0 -4.824,-14.473 -4.824,-39.132 0,-24.658 -0.537,-50.924 0.178,-65.219 0.715,-14.295 2.145,-118.647 4.289,-136.516 2.144,-17.869 -5.004,-45.028 -8.577,-54.32 -3.574,-9.292 -17.869,-128.654 -17.869,-128.654 0,0 63.612,-19.297 122.936,13.581 v 299.476 c 0,0 2.144,64.327 -5.003,97.205 L 50.747,-46.458 37.524,-13.226 17.868,-2.862 C 17.868,-2.862 4.646,3.577 0,0"
             style="fill:#d1e6f6;fill-opacity:1;fill-rule:nonzero;stroke:none"
             id="path442" /></g><g
           id="g444"
           transform="translate(406.5972,500.1826)"><path
             d="m 0,0 c 0,0 18.226,21.978 26.803,31.627 8.577,9.649 18.761,3.752 18.761,3.752 0,0 7.505,-28.946 -0.535,-23.586 l -0.536,2.145 -4.825,10.72 c 0,0 -12.865,-3.752 -14.474,-9.649 l -1.608,-5.896 16.618,9.649 c 0,0 6.433,-6.433 -2.68,-10.721 C 28.411,3.752 21.978,-5.361 21.978,-5.361 21.978,-5.361 -1.072,-23.587 0,0"
             style="fill:#5a7dbd;fill-opacity:1;fill-rule:nonzero;stroke:none"
             id="path446" /></g><g
           id="g448"
           transform="translate(429.9819,509.1689)"><path
             d="m 0,0 16.819,9.775 c 0,0 4.868,-4.608 0.368,-8.775 -4.499,-4.167 -2.5,-0.333 -13.833,-9.833 l -4.761,-5.514 c 0,0 -10.781,-8.965 -17.739,-6.153 C -25.499,-17.933 -1.333,-7.667 0,0"
             style="fill:#5377aa;fill-opacity:1;fill-rule:nonzero;stroke:none"
             id="path450" /></g><g
           id="g452"
           transform="translate(342.9194,677.8354)"><path
             d="m 0,0 14.36,-0.219 c 0,0 -5.193,-25.364 -8.277,-34.614 C 5.767,-35.782 6.667,-5.667 0,0"
             style="fill:#5377aa;fill-opacity:1;fill-rule:nonzero;stroke:none"
             id="path454" /></g><g
           id="g456"
           transform="translate(264.9072,720.9492)"><path
             d="m 0,0 c 0,0 6.448,8.813 23.448,13.313 0,0 -9.465,-15.333 -3.465,-60.833 L 2.144,-49.674 c 0,0 -3.092,40.861 -2.144,49.674"
             style="fill:#aeb9ca;fill-opacity:1;fill-rule:nonzero;stroke:none"
             id="path458" /></g><g
           id="g460"
           transform="translate(300.1006,607.2144)"><path
             d="m 0,0 c 0,0 -11.681,7.705 -16.431,12.955 0,0 1.5,-32.75 6,-43.25 0,0 3.612,19.09 10.431,30.295"
             style="fill:#5377aa;fill-opacity:1;fill-rule:nonzero;stroke:none"
             id="path462" /></g><g
           id="g464"
           transform="translate(221.3364,92.668)"><path
             d="M 0,0 C 0,0 47.333,-2.666 80.667,16.667 V 9.334 C 80.667,9.334 42.333,-13 0,0"
             style="fill:#242265;fill-opacity:1;fill-rule:nonzero;stroke:none"
             id="path466" /></g><g
           id="g468"
           transform="translate(306.6694,478.1689)"><path
             d="M 0,0 1,-27.5 54.899,-92.167 94.5,-121 56,-86 Z"
             style="fill:#707f91;fill-opacity:1;fill-rule:nonzero;stroke:none"
             id="path470" /></g><g
           id="g472"
           transform="translate(249.354,576.4805)"><path
             d="m 0,0 c 0,0 32.065,-27.562 34.565,-52.562 0,0 15.75,2.5 16.75,-3.25 l -1.75,15 -17.5,25.25 c 0,0 -12.25,13.25 -13,13.75 C 18.315,-1.312 0,0 0,0"
             style="fill:#b1cddd;fill-opacity:1;fill-rule:nonzero;stroke:none"
             id="path474" /></g><g
           id="g476"
           transform="translate(254.3569,584.3428)"><path
             d="m 0,0 c 2.144,-1.072 27.518,0 40.383,-10.721 0,0 -0.715,-8.934 0,-13.938 0.715,-5.003 5.361,-29.661 5.361,-29.661 0,0 -8.934,2.144 -11.079,0.357 0,0 -6.79,41.812 -39.668,46.101 z"
             style="fill:#ecf0f8;fill-opacity:1;fill-rule:nonzero;stroke:none"
             id="path478" /></g><g
           id="g480"
           transform="translate(307.605,411.376)"><path
             d="m 0,0 0.064,14.626 -98.666,80 c 0,0 -8,-51.999 2,-231.332 0,0 -2.931,-35.393 -8.465,-47.696 -5.535,-12.304 -17.869,-128.655 -17.869,-128.655 0,0 25.001,-6.985 36.667,-5.651 0,0 -3.666,142.667 9,181.334 12.667,38.667 35.333,88.667 35.333,88.667 0,0 -14.667,-6.666 -28,-33.333 0,0 -31.5,95.333 -10,141.333 z"
             style="fill:#b1cddd;fill-opacity:1;fill-rule:nonzero;stroke:none"
             id="path482" /></g><g
           id="g484"
           transform="translate(209.6855,254.1318)"><path
             d="m 0,0 c 0,0 -13.938,2.502 3.931,11.794 0,0 12.508,5.003 17.154,5.003 4.646,0 10.721,8.934 0.357,14.295 0,0 -15.01,2.502 -30.377,-13.223 0,0 -6.075,-19.656 8.935,-17.869"
             style="fill:#ecf0f8;fill-opacity:1;fill-rule:nonzero;stroke:none"
             id="path486" /></g><g
           id="g488"
           transform="translate(222.1934,278.791)"><path
             d="M 0,0 C 0,1.974 1.601,3.574 3.574,3.574 5.547,3.574 7.148,1.974 7.148,0 7.148,-1.974 5.547,-3.574 3.574,-3.574 1.601,-3.574 0,-1.974 0,0"
             style="fill:#aeb9ca;fill-opacity:1;fill-rule:nonzero;stroke:none"
             id="path490" /></g><g
           id="g492"
           transform="translate(208.2559,518.4082)"><path
             d="m 0,0 c 0,0 8.577,9.649 23.05,5.897 l 74.513,-74.512 c 0,0 11.257,-11.793 32.699,2.68 21.442,14.474 61.647,44.493 61.647,44.493 0,0 6.432,-13.937 6.432,-32.7 L 111.5,-95.418 c 0,0 -9.113,-8.041 -23.05,5.897 -13.938,13.937 -82.554,69.151 -82.554,69.151 0,0 -9.648,4.825 -5.896,20.37"
             style="fill:#aeb9ca;fill-opacity:1;fill-rule:nonzero;stroke:none"
             id="path494" /></g></g></g></g></svg>
