<?xml version="1.0" encoding="utf-8"?>
<!-- Generator: Adobe Illustrator 22.0.1, SVG Export Plug-In . SVG Version: 6.00 Build 0)  -->
<svg version="1.1" id="Imagetype_Salutic" xmlns="http://www.w3.org/2000/svg" xmlns:xlink="http://www.w3.org/1999/xlink" x="0px"
	 y="0px" viewBox="0 0 250 69.1" style="enable-background:new 0 0 250 69.1;" xml:space="preserve">
<style type="text/css">
	.st0{fill:#FFFFFF;}
</style>
<g id="Group_of_symbol_and_text">
	<g id="Text">
		<path class="st0" d="M93.2,27.4l-4.7,4.7c-1.9-1.9-3.7-2.8-5.2-2.8c-0.9,0-1.5,0.2-2,0.5c-0.5,0.4-0.7,0.8-0.7,1.4
			c0,0.4,0.2,0.8,0.5,1.1c0.3,0.3,1.1,0.8,2.3,1.4l2.8,1.4c2.9,1.5,5,2.9,6.1,4.4s1.6,3.3,1.6,5.3c0,2.7-1,5-3,6.8s-4.6,2.7-8,2.7
			c-4.4,0-8-1.7-10.6-5.2L77,44c0.9,1,1.9,1.9,3.1,2.5s2.3,1,3.2,1c1,0,1.8-0.2,2.4-0.7s0.9-1,0.9-1.7c0-1.2-1.1-2.3-3.3-3.4
			l-2.6-1.3c-4.9-2.5-7.4-5.6-7.4-9.3c0-2.4,0.9-4.5,2.8-6.2s4.2-2.6,7.1-2.6c2,0,3.8,0.4,5.6,1.3C90.5,24.5,92,25.8,93.2,27.4z"/>
		<path class="st0" d="M123.6,23h7.6v30.5h-7.6v-3.2c-1.5,1.4-3,2.4-4.5,3.1c-1.5,0.6-3.1,0.9-4.9,0.9c-3.9,0-7.3-1.5-10.2-4.6
			c-2.9-3.1-4.3-6.8-4.3-11.4c0-4.7,1.4-8.6,4.2-11.6c2.8-3,6.2-4.5,10.1-4.5c1.8,0,3.5,0.3,5.1,1s3.1,1.7,4.4,3.1V23H123.6z
			 M115.4,29.5c-2.3,0-4.3,0.8-5.8,2.5c-1.6,1.7-2.3,3.8-2.3,6.4c0,2.6,0.8,4.8,2.4,6.5s3.5,2.5,5.8,2.5c2.4,0,4.4-0.8,5.9-2.5
			c1.6-1.7,2.4-3.8,2.4-6.5c0-2.6-0.8-4.8-2.4-6.4C119.8,30.3,117.8,29.5,115.4,29.5z"/>
		<path class="st0" d="M138.8,10.5h7.8v43.8h-7.8V10.5z"/>
		<path class="st0" d="M152.9,22.2h7.6V38c0,2.8,0.2,4.8,0.6,5.9c0.4,1.1,1,1.9,1.9,2.6c0.9,0.6,1.9,0.9,3.2,0.9s2.3-0.3,3.2-0.9
			c0.9-0.6,1.5-1.5,1.9-2.6c0.3-0.9,0.5-2.7,0.5-5.5v-16h7.5v14c0,5.2-0.4,8.8-1.2,10.8c-1,2.4-2.5,4.2-4.5,5.4
			c-2,1.3-4.5,1.9-7.5,1.9c-3.3,0-6-0.7-8-2.2s-3.5-3.5-4.3-6.1c-0.6-1.8-0.9-5.1-0.9-9.9V22.2z"/>
		<path class="st0" d="M188.1,10.5h7.8v12h4.6v6.7h-4.6v25.1h-7.8V29.2h-4v-6.7h4V10.5z"/>
		<path class="st0" d="M209.2,10.6c1.4,0,2.5,0.5,3.5,1.5s1.5,2.2,1.5,3.6c0,1.4-0.5,2.6-1.4,3.5c-1,1-2.1,1.5-3.5,1.5
			s-2.6-0.5-3.5-1.5c-1-1-1.5-2.2-1.5-3.6s0.5-2.5,1.4-3.5C206.7,11,207.9,10.6,209.2,10.6z M205.3,22.2h7.8v32.1h-7.8V22.2z"/>
		<path class="st0" d="M250,29.2l-6.3,3.5c-1.2-1.3-2.3-2.1-3.5-2.6c-1.1-0.5-2.5-0.7-4-0.7c-2.8,0-5.1,0.9-6.8,2.6
			s-2.6,3.9-2.6,6.6c0,2.6,0.8,4.7,2.5,6.4c1.7,1.6,3.9,2.5,6.6,2.5c3.4,0,6-1.2,7.9-3.5l5.9,4.1c-3.2,4.3-7.7,6.4-13.6,6.4
			c-5.3,0-9.4-1.6-12.4-4.8s-4.5-6.9-4.5-11.2c0-3,0.7-5.7,2.2-8.2c1.4-2.5,3.5-4.4,6.1-5.9c2.6-1.4,5.5-2.1,8.7-2.1
			c3,0,5.6,0.6,8,1.8C246.6,25.2,248.5,26.9,250,29.2z"/>
	</g>
	<g id="Symbol">
		<path class="st0" d="M32.2,19.4c7.1,0,12.8,5.7,12.8,12.8S39.3,45,32.2,45s-12.8-5.7-12.8-12.8C19.4,25.1,25.1,19.4,32.2,19.4z"/>
		<path class="st0" d="M11.8,58.3L21,54l0.6-0.4c3.2,1.6,6.8,2.5,10.6,2.5c13.3,0,24-10.7,24-24s-10.7-24-24-24
			c-13.2,0-24,10.7-24,24c0,4.9,1.5,9.5,4,13.3l-3.7,8.5C3.3,48.3,0,40.6,0,32.2C0,14.4,14.4,0,32.2,0s32.2,14.4,32.2,32.2
			S50,64.4,32.2,64.4c-3.6,0-7.1-0.6-10.3-1.7L8.1,69.1L11.8,58.3z"/>
	</g>
</g>
</svg>
